<svg xmlns="http://www.w3.org/2000/svg" viewBox="0 0 512 512">
  <circle cx="256" cy="256" r="256" fill="#ffb300" />
  
  <path d="M180,130 v90 a40,40 0 0,0 40,40 v120 a20,20 0 0,0 40,0 v-120 a40,40 0 0,0 40,-40 v-90" fill="none" stroke="#ffffff" stroke-width="32" stroke-linecap="round" stroke-linejoin="round"/>
  <line x1="180" y1="130" x2="180" y2="190" stroke="#ffffff" stroke-width="32" stroke-linecap="round"/>
  <line x1="220" y1="130" x2="220" y2="190" stroke="#ffffff" stroke-width="32" stroke-linecap="round"/>
  <line x1="260" y1="130" x2="260" y2="190" stroke="#ffffff" stroke-width="32" stroke-linecap="round"/>
  <line x1="300" y1="130" x2="300" y2="190" stroke="#ffffff" stroke-width="32" stroke-linecap="round"/>
  
  <path d="M370,130 c30,0 30,50 30,100 v150 a20,20 0 0,1 -40,0 v-250 c0,-10 10,-10 10,-10 z" fill="#ffffff" />
</svg>
